<?xml version="1.0" standalone="no"?>
<!DOCTYPE svg PUBLIC "-//W3C//DTD SVG 20010904//EN"
 "http://www.w3.org/TR/2001/REC-SVG-20010904/DTD/svg10.dtd">
<svg version="1.0" xmlns="http://www.w3.org/2000/svg"
 width="1280.000000pt" height="1280.000000pt" viewBox="0 0 1280.000000 1280.000000"
 preserveAspectRatio="xMidYMid meet">
<metadata>
Created by potrace 1.14, written by Peter Selinger 2001-2017
</metadata>
<g transform="translate(0.000000,1280.000000) scale(0.100000,-0.100000)"
fill="#000000" stroke="none">
<path d="M6150 9344 c-64 -13 -100 -26 -95 -33 3 -5 -11 -18 -30 -30 -19 -11
-35 -17 -35 -12 0 4 12 13 26 20 15 6 24 14 21 17 -9 10 -92 -52 -89 -66 2 -7
-3 -10 -12 -7 -15 6 -50 -25 -40 -35 3 -4 -4 -9 -15 -13 -12 -3 -21 -11 -21
-17 0 -6 -3 -8 -7 -5 -3 4 -12 -1 -19 -11 -15 -19 -18 -36 -6 -28 5 3 9 -1 9
-9 0 -8 -4 -12 -8 -10 -4 3 -10 -2 -13 -11 -4 -9 -13 -13 -24 -10 -18 6 -70
-40 -64 -56 1 -5 -3 -8 -9 -8 -7 0 -20 -10 -31 -22 -11 -13 -42 -47 -70 -76
-43 -44 -47 -52 -27 -48 13 2 23 9 21 15 -1 6 5 14 13 17 8 3 12 11 8 17 -3 6
-1 7 6 3 13 -8 8 -20 -22 -53 -11 -12 -23 -20 -28 -18 -9 6 -40 -35 -34 -45 3
-4 -2 -13 -10 -20 -8 -7 -15 -19 -15 -26 0 -8 -4 -14 -10 -14 -5 0 -10 -8 -10
-17 -1 -10 -6 -28 -14 -41 -11 -20 -14 -21 -25 -9 -8 10 -9 17 -1 22 5 3 10 0
10 -7 0 -9 3 -9 10 2 13 20 12 33 -2 24 -15 -10 -1 13 32 49 14 16 24 31 22
33 -2 3 4 17 13 32 12 21 9 19 -15 -8 -48 -53 -91 -132 -84 -154 4 -11 2 -16
-4 -12 -7 4 -19 -23 -33 -67 l-22 -74 -126 -6 c-69 -4 -166 -14 -216 -22 -49
-9 -109 -19 -132 -22 -24 -3 -40 -9 -37 -14 3 -5 -1 -6 -9 -3 -8 3 -18 0 -22
-5 -3 -6 -10 -9 -15 -6 -4 3 -21 -2 -36 -10 -16 -8 -37 -15 -46 -15 -10 0 -18
-4 -18 -9 0 -5 -8 -7 -17 -5 -24 6 -116 -48 -218 -126 -84 -65 -101 -85 -67
-78 9 2 17 10 17 18 1 8 6 14 12 13 7 -2 20 8 30 20 20 25 152 122 158 116 2
-2 -19 -20 -46 -39 -28 -19 -76 -58 -107 -87 -31 -29 -63 -53 -70 -53 -7 0
-11 -3 -9 -7 3 -5 -13 -26 -35 -48 -35 -35 -38 -37 -22 -10 10 17 26 38 37 49
10 10 16 20 14 23 -3 2 -16 -7 -30 -21 -15 -14 -23 -26 -19 -26 4 0 -1 -5 -10
-11 -10 -5 -18 -17 -18 -25 0 -9 -5 -13 -12 -9 -7 4 -6 0 3 -7 15 -13 15 -15
-2 -37 -21 -25 -25 -21 -9 10 12 22 -2 26 -20 4 -7 -8 -9 -23 -4 -37 6 -20 5
-21 -10 -9 -9 8 -16 9 -16 3 0 -6 4 -14 10 -17 5 -3 3 -19 -7 -40 -9 -19 -21
-31 -26 -28 -7 4 -8 -1 -3 -13 6 -16 5 -17 -6 -6 -11 11 -10 16 5 27 10 7 14
16 8 19 -13 8 -16 3 -56 -107 -26 -73 -31 -97 -22 -107 8 -9 8 -11 1 -7 -17
10 -25 -46 -14 -100 12 -65 20 -84 33 -76 6 3 7 1 3 -5 -7 -12 20 -56 69 -111
16 -18 69 -59 116 -91 104 -69 214 -107 548 -191 308 -77 295 -73 309 -112 16
-45 14 -180 -3 -242 -7 -27 -14 -41 -15 -30 l-1 20 -10 -20 c-7 -14 -8 -9 -3
20 9 62 -2 39 -26 -55 -12 -47 -30 -114 -40 -150 -49 -165 -53 -351 -11 -485
43 -137 144 -384 154 -378 6 3 7 1 3 -5 -4 -6 12 -56 35 -109 149 -352 166
-401 141 -417 -4 -2 -9 -21 -10 -42 -2 -20 -5 -41 -8 -46 -3 -5 0 -16 8 -25 9
-12 9 -15 1 -9 -14 8 -18 -15 -5 -28 4 -4 7 -11 8 -14 0 -4 3 -14 7 -22 3 -8
13 -35 21 -60 10 -28 14 -34 11 -15 -4 25 -3 27 6 12 6 -10 8 -31 4 -46 -3
-16 -2 -32 4 -35 6 -4 8 -12 5 -19 -7 -20 49 -117 68 -117 5 0 6 5 2 12 -5 7
-3 8 5 4 7 -5 10 -10 7 -13 -9 -9 36 -43 47 -36 5 3 7 2 4 -4 -7 -12 20 -53
35 -53 7 0 6 6 -2 15 -16 20 -15 19 66 -10 38 -14 79 -25 91 -25 12 0 23 -5
25 -11 2 -7 46 -12 125 -13 67 0 119 -4 116 -8 -7 -13 6 -9 32 8 16 11 34 14
55 9 23 -5 37 -2 51 11 10 9 22 14 25 11 4 -3 19 0 35 8 15 8 41 15 56 15 15
0 51 15 79 33 102 64 154 102 154 113 0 16 46 38 64 31 9 -4 16 -3 16 2 0 5
-10 11 -22 14 -27 8 -35 2 97 77 288 163 609 391 766 542 149 142 216 241 280
408 28 73 69 153 57 110 -6 -19 60 -49 124 -57 57 -7 118 19 175 76 103 99
344 504 342 573 0 16 -4 10 -13 -17 -33 -103 -164 -327 -282 -480 -94 -123
-195 -166 -282 -121 -61 31 -63 47 -28 185 31 118 33 124 65 137 18 7 44 23
59 34 22 18 34 20 78 14 49 -6 54 -4 92 30 107 97 115 283 14 377 -50 48 -67
58 -58 34 4 -10 2 -21 -3 -24 -5 -4 -3 -15 6 -26 15 -20 15 -20 8 3 -9 29 9
28 33 -3 11 -13 22 -22 25 -19 3 3 13 -16 23 -43 21 -53 23 -155 4 -178 -7 -8
-9 -19 -5 -24 3 -7 0 -8 -9 -5 -9 3 -16 2 -16 -4 0 -20 -52 -72 -71 -72 -10 0
-19 -4 -19 -10 0 -28 55 1 80 43 11 18 20 26 20 19 0 -8 -16 -30 -35 -49 -35
-35 -37 -36 -94 -30 -53 6 -60 4 -94 -24 -21 -17 -42 -27 -48 -23 -8 5 -9 3
-4 -6 5 -9 4 -11 -4 -6 -6 4 -9 11 -6 16 2 4 7 25 11 46 19 126 35 209 42 212
5 1 7 16 4 32 -6 44 17 196 39 256 27 72 93 137 161 160 76 26 175 24 219 -4
58 -36 77 -96 89 -282 l8 -115 -3 130 c-6 236 -45 296 -205 307 -28 2 -35 7
-33 23 29 299 28 755 -2 920 -36 199 -112 373 -264 602 -107 162 -237 321
-340 415 -178 165 -364 218 -1041 298 -175 21 -413 33 -460 24z m-220 -133 c0
-6 -4 -13 -10 -16 -5 -3 -10 1 -10 9 0 9 5 16 10 16 6 0 10 -4 10 -9z m-51
-58 c-13 -16 -25 -29 -25 -31 -1 -2 -5 5 -8 15 -4 9 -4 15 -1 11 4 -3 15 2 26
13 29 29 36 23 8 -8z m-97 -91 c-7 -2 -10 -7 -7 -12 3 -4 -2 -13 -9 -19 -11
-9 -14 -9 -12 1 6 30 19 47 29 41 8 -5 7 -8 -1 -11z m-42 -56 c0 -2 -8 -10
-17 -17 -16 -13 -17 -12 -4 4 13 16 21 21 21 13z m-58 -61 c-13 -16 -23 -22
-27 -15 -4 6 3 23 16 36 29 31 38 13 11 -21z m-209 -305 c-3 -12 -8 -19 -11
-16 -5 6 5 36 12 36 2 0 2 -9 -1 -20z m-30 -63 c-4 -7 -6 -19 -5 -28 2 -9 -4
-19 -13 -22 -9 -4 -15 -1 -15 9 0 9 5 12 12 8 8 -5 9 -2 5 9 -8 21 2 49 14 41
5 -3 6 -11 2 -17z m1505 -281 c-10 -7 -22 -25 -28 -41 -6 -15 -13 -25 -16 -23
-9 9 29 77 39 71 7 -4 8 1 3 13 -6 16 -5 17 6 6 11 -11 10 -16 -4 -26z m102
-33 c0 -11 -63 -53 -78 -53 -7 0 -11 12 -11 28 2 23 2 24 6 5 5 -29 11 -28 48
2 33 27 35 28 35 18z m115 -19 c17 -8 21 -12 10 -8 -11 3 -34 8 -51 11 -28 5
-32 2 -42 -25 -13 -37 2 -54 67 -77 52 -18 54 -18 46 -4 -4 6 2 5 13 -2 12 -7
18 -17 16 -21 -3 -4 0 -8 7 -8 7 0 10 -2 8 -5 -6 -5 -150 52 -163 65 -5 5 -10
24 -11 44 -3 26 1 36 13 39 32 9 57 6 87 -9z m-123 -56 c-8 -8 -9 -4 -5 13 4
13 8 18 11 10 2 -7 -1 -18 -6 -23z m215 24 c9 -6 4 -15 -17 -34 -17 -14 -30
-25 -30 -23 0 2 -3 11 -7 21 -4 11 -3 15 4 11 14 -9 43 2 43 15 0 6 -7 8 -15
4 -8 -3 -15 -1 -15 4 0 12 20 13 37 2z m63 -41 c12 -24 -23 -81 -50 -81 -27 0
-25 9 6 20 20 8 24 15 19 33 -5 17 -4 19 4 7 9 -12 11 -13 11 -1 0 8 -8 23
-17 33 -16 18 -16 18 0 12 10 -3 22 -14 27 -23z m-840 -16 c144 -19 202 -30
315 -62 196 -56 388 -135 600 -246 94 -50 204 -108 245 -129 190 -100 462
-444 514 -653 5 -20 1 -27 -22 -39 -34 -17 -95 -83 -116 -124 -19 -38 -42
-141 -57 -261 -6 -51 -20 -139 -30 -195 -11 -55 -22 -114 -25 -131 -20 -108
-68 -270 -121 -409 -61 -158 -156 -311 -176 -284 -6 9 -7 7 -3 -6 16 -47 -350
-350 -604 -501 -36 -22 -72 -45 -81 -52 -18 -15 -33 -17 -24 -4 3 5 1 12 -4
16 -6 3 -8 -3 -6 -15 5 -28 -83 -79 -131 -75 -20 1 -31 -2 -27 -7 3 -6 -11 -8
-36 -4 -37 5 -43 3 -51 -17 -6 -15 -9 18 -11 103 -3 211 -13 226 -109 162 -64
-43 -195 -91 -310 -113 -103 -19 -279 -15 -400 10 -198 42 -258 85 -317 228
-74 180 -175 421 -193 461 -11 23 -20 47 -20 53 0 6 -6 25 -14 42 -76 166
-109 297 -109 437 0 93 6 125 48 285 60 226 75 292 75 333 0 17 4 32 8 32 5 0
14 18 21 40 11 38 52 79 94 93 14 5 17 0 17 -33 0 -29 6 -43 22 -54 l22 -16
-27 0 c-15 0 -27 -4 -27 -10 0 -15 9 -13 110 20 50 17 98 30 107 30 11 0 14
11 11 47 l-3 48 -45 7 c-55 10 -150 -5 -203 -31 -22 -11 -45 -17 -51 -14 -6 3
-8 3 -4 -2 11 -11 -31 -67 -44 -59 -7 4 -8 2 -4 -4 4 -7 2 -20 -3 -29 -10 -16
-10 -16 -11 3 0 11 -11 48 -25 83 -14 34 -32 91 -41 128 -15 65 -15 66 10 104
44 66 62 73 179 65 56 -3 130 -9 163 -12 l62 -7 -6 28 c-2 15 -13 36 -23 46
-11 11 -19 25 -19 32 0 21 -46 108 -53 100 -4 -3 -7 -1 -7 5 0 7 6 12 13 12 7
0 6 4 -3 10 -18 10 -139 -3 -201 -21 -39 -12 -57 -26 -84 -64 -24 -34 51 158
90 231 39 73 83 127 96 118 5 -3 6 1 3 9 -9 25 104 115 211 167 106 52 210 85
340 106 97 16 339 11 505 -11z m-2267 -320 c-15 -38 -28 -65 -30 -59 -2 6 8
36 22 68 14 31 22 63 19 69 -5 9 -4 9 4 2 9 -8 5 -29 -15 -80z m-36 -187 c-2
-13 -4 -3 -4 22 0 25 2 35 4 23 2 -13 2 -33 0 -45z m1289 -536 c-22 -5 -30 3
-21 18 5 8 11 7 22 -2 15 -12 14 -13 -1 -16z m-253 -371 c-4 -17 -8 -20 -15
-9 -7 9 -8 2 -4 -20 4 -23 2 -31 -6 -26 -8 5 -9 -2 -4 -22 5 -23 4 -25 -4 -12
-13 22 -3 84 17 104 19 19 24 14 16 -15z m-33 -131 c0 -5 -5 -10 -11 -10 -5 0
-7 5 -4 10 3 6 8 10 11 10 2 0 4 -4 4 -10z m-13 -42 c-3 -8 -6 -5 -6 6 -1 11
2 17 5 13 3 -3 4 -12 1 -19z m-26 -11 c-10 -9 -11 -8 -5 6 3 10 9 15 12 12 3
-3 0 -11 -7 -18z m15 -33 c-3 -9 -6 -22 -6 -30 0 -8 -4 -14 -8 -14 -5 0 -7 14
-4 30 2 17 9 30 14 30 6 0 7 -7 4 -16z m-19 -101 c-3 -10 -5 -2 -5 17 0 19 2
27 5 18 2 -10 2 -26 0 -35z m-7 -75 c0 -38 -3 -49 -10 -38 -13 20 -13 90 0 90
6 0 10 -24 10 -52z m-13 -100 c-3 -7 -5 -2 -5 12 0 14 2 19 5 13 2 -7 2 -19 0
-25z m27 -38 c4 -31 3 -40 -4 -30 -5 8 -10 30 -10 49 0 45 6 37 14 -19z m13
-102 c-2 -13 -4 -5 -4 17 -1 22 1 32 4 23 2 -10 2 -28 0 -40z m10 -50 c-3 -8
-6 -5 -6 6 -1 11 2 17 5 13 3 -3 4 -12 1 -19z m20 -30 c-3 -8 -6 -5 -6 6 -1
11 2 17 5 13 3 -3 4 -12 1 -19z m23 -38 c0 -19 -18 -19 -23 -1 -3 14 -1 18 9
14 8 -3 14 -9 14 -13z m18 -75 c0 -16 -2 -15 -8 5 -11 34 -11 60 0 35 5 -11 8
-29 8 -40z m32 -98 c-10 -9 -12 -8 -7 6 4 9 2 17 -4 17 -6 0 -7 5 -3 11 5 8
10 6 16 -6 7 -12 6 -21 -2 -28z m29 -34 c9 -18 9 -23 -1 -23 -7 0 -14 12 -14
26 -2 28 -1 28 15 -3z m25 -58 c3 -8 1 -15 -4 -15 -6 0 -10 7 -10 15 0 8 2 15
4 15 2 0 6 -7 10 -15z m14 -66 c-3 -8 -7 -3 -11 10 -4 17 -3 21 5 13 5 -5 8
-16 6 -23z m118 -251 c20 -37 17 -47 -6 -19 -11 13 -20 31 -20 40 0 9 -15 46
-33 82 -18 37 -31 72 -29 79 3 7 20 -25 39 -71 19 -46 41 -96 49 -111z m26
-86 c-4 -13 -7 -12 -12 4 -4 10 -5 23 -2 28 7 13 21 -16 14 -32z m37 -97 c0
-5 -4 -3 -9 5 -5 8 -9 22 -9 30 0 16 17 -16 18 -35z m-19 -22 c0 -21 -3 -24
-9 -14 -5 8 -7 20 -4 28 8 21 13 15 13 -14z m-15 -33 c3 -5 1 -10 -4 -10 -6 0
-11 5 -11 10 0 6 2 10 4 10 3 0 8 -4 11 -10z m1 -67 c-3 -4 -6 -1 -6 6 0 7 -4
9 -10 6 -6 -4 -7 1 -3 11 6 15 7 15 15 -1 6 -9 7 -19 4 -22z m17 -70 c-3 -7 0
-20 7 -28 11 -13 10 -14 -4 -9 -12 5 -16 14 -13 31 3 15 -1 27 -9 30 -8 3 -11
9 -8 15 8 13 33 -23 27 -39z m1277 -58 c0 -2 -13 -11 -29 -20 -22 -11 -32 -12
-37 -3 -4 6 -3 8 3 5 6 -4 19 0 29 8 19 15 34 19 34 10z m-95 -35 c4 -6 11 -8
16 -5 5 4 9 4 9 1 0 -12 -59 -36 -65 -26 -3 6 4 10 16 10 18 0 19 2 9 15 -8 9
-9 15 -2 15 6 0 14 -5 17 -10z m-1138 -62 c-3 -8 -6 -5 -6 6 -1 11 2 17 5 13
3 -3 4 -12 1 -19z m15 -43 c3 -14 1 -25 -3 -25 -5 0 -9 11 -9 25 0 14 2 25 4
25 2 0 6 -11 8 -25z"/>
<path d="M5669 8953 c-13 -16 -12 -17 4 -4 9 7 17 15 17 17 0 8 -8 3 -21 -13z"/>
<path d="M6586 7859 c-113 -20 -329 -74 -356 -90 -13 -7 -13 -9 0 -10 8 -1 18
-1 22 -1 3 1 1 -12 -5 -28 -6 -16 -16 -28 -21 -27 -6 1 -11 -14 -10 -36 1 -21
-2 -33 -6 -27 -5 9 -9 9 -14 1 -4 -6 -5 -15 -2 -19 3 -5 1 -34 -3 -65 -5 -35
-4 -57 2 -57 5 0 -1 -9 -14 -21 l-24 -20 25 7 c14 3 67 26 117 50 175 82 391
173 477 200 110 34 174 31 270 -14 79 -37 143 -81 240 -166 72 -63 75 -51 7
34 -107 136 -221 240 -306 281 -56 27 -68 29 -175 28 -65 0 -162 -9 -224 -20z"/>
<path d="M7515 7460 c8 -37 -7 -39 -29 -5 -23 35 -72 35 -88 0 -9 -20 -8 -37
5 -79 l17 -54 -30 -30 c-23 -24 -30 -39 -30 -70 0 -47 36 -106 68 -110 23 -4
30 12 11 24 -6 3 -9 17 -6 30 2 13 0 21 -4 18 -5 -3 -9 -17 -9 -32 l-1 -27
-25 29 c-22 25 -25 36 -20 70 4 29 15 48 35 64 l29 23 -15 49 c-17 59 -14 89
9 104 14 8 24 4 51 -22 26 -25 36 -29 45 -20 9 9 12 7 12 -10 0 -29 -15 -28
-52 3 -30 25 -58 33 -58 15 0 -5 6 -7 13 -4 7 2 24 -7 37 -21 13 -14 34 -25
46 -25 31 0 41 35 18 61 -9 10 -15 22 -11 25 3 3 13 -6 22 -20 20 -31 13 -90
-12 -104 -15 -9 -15 -11 1 -33 27 -39 18 -42 -19 -6 -19 19 -35 41 -35 49 0 9
-7 21 -16 29 -13 10 -17 10 -25 -2 -5 -8 -9 -20 -9 -27 0 -20 25 -65 49 -86
25 -22 27 -39 7 -55 -11 -10 -16 -8 -21 9 -4 12 -17 26 -31 32 -30 14 -54 -4
-53 -41 l1 -26 7 25 c11 41 37 36 62 -12 16 -30 24 -38 27 -26 2 9 19 27 38
38 19 12 34 29 34 38 1 15 2 15 11 -1 6 -9 14 -15 20 -12 19 12 48 -6 58 -37
13 -37 7 -49 -9 -19 -6 12 -16 21 -23 21 -8 0 -9 -3 -1 -8 32 -21 36 -53 19
-149 -9 -52 -15 -103 -12 -113 4 -15 0 -19 -17 -17 -18 2 -21 -3 -20 -35 1
-45 -17 -51 -42 -13 -12 18 -15 37 -10 65 3 22 8 59 11 83 l5 42 -14 -50 c-30
-99 -12 -180 37 -173 19 3 22 9 19 41 -3 37 11 51 22 21 11 -28 28 -3 22 31
-4 19 1 66 10 107 9 40 17 99 18 131 1 51 -3 62 -23 78 -13 11 -31 17 -41 14
-11 -4 -21 5 -32 29 -16 32 -15 36 3 74 22 45 19 78 -12 111 -30 32 -52 28
-44 -9z m-1 -169 c26 -24 35 -61 16 -61 -5 0 -10 6 -10 13 0 7 -11 24 -24 38
-31 33 -44 61 -38 78 3 9 9 4 17 -15 7 -16 24 -40 39 -53z"/>
<path d="M6666 7429 c-40 -9 -133 -53 -151 -70 -5 -6 25 6 67 26 60 27 98 37
165 44 85 8 86 8 23 9 -36 0 -82 -4 -104 -9z"/>
<path d="M6841 7426 c2 -2 18 -6 34 -10 22 -5 26 -4 15 4 -14 9 -59 15 -49 6z"/>
<path d="M6635 7280 c-53 -11 -95 -29 -73 -29 9 -1 29 4 43 9 26 10 26 9 20
-20 -4 -20 -1 -39 11 -59 25 -42 98 -50 214 -24 23 5 24 6 5 13 -17 7 -17 9
-3 9 23 1 38 32 31 61 -5 20 -4 21 16 10 12 -6 27 -10 34 -7 6 2 -11 11 -38
21 -58 20 -202 29 -260 16z m45 -35 c0 -9 -6 -12 -15 -9 -8 4 -15 10 -15 15 0
5 7 9 15 9 8 0 15 -7 15 -15z"/>
<path d="M5415 7261 c-57 -14 -132 -61 -118 -74 5 -5 50 19 63 33 14 16 103
35 160 34 44 -1 57 1 40 6 -31 10 -106 10 -145 1z"/>
<path d="M6980 7202 c35 -31 50 -38 50 -24 0 4 -15 16 -33 27 -50 31 -55 30
-17 -3z"/>
<path d="M7560 7195 c0 -8 4 -15 10 -15 5 0 7 7 4 15 -4 8 -8 15 -10 15 -2 0
-4 -7 -4 -15z"/>
<path d="M5240 7168 c0 -9 5 -20 10 -23 13 -8 13 5 0 25 -8 13 -10 13 -10 -2z"/>
<path d="M5274 7151 c-4 -17 -10 -28 -15 -25 -5 3 -9 0 -9 -5 0 -21 19 -10 33
19 9 17 11 32 6 36 -5 3 -12 -8 -15 -25z"/>
<path d="M7451 7171 c-1 -7 4 -32 10 -55 21 -75 19 -73 29 -55 7 11 18 15 37
11 l28 -5 -25 24 c-24 23 -25 24 -33 4 -8 -17 -12 -11 -27 35 -10 30 -18 49
-19 41z"/>
<path d="M7516 7154 c-5 -14 -4 -15 9 -4 30 25 38 -2 33 -124 -4 -105 -3 -113
11 -93 8 12 21 27 28 32 6 6 18 47 26 92 12 70 12 85 1 94 -11 9 -18 8 -29 -1
-12 -10 -16 -9 -21 4 -8 21 -50 21 -58 0z m104 -25 c0 -28 -24 -145 -32 -153
-4 -6 -8 26 -8 70 0 45 3 84 7 87 10 11 33 8 33 -4z"/>
<path d="M7996 6991 c-10 -11 -23 -55 -31 -106 -8 -48 -21 -95 -28 -104 -8 -9
-12 -22 -10 -29 4 -11 1 -12 -15 -3 -23 12 -26 9 -36 -34 -4 -19 -3 -25 2 -16
6 8 12 9 16 3 11 -19 -22 -21 -39 -2 -12 14 -15 27 -10 51 5 24 4 30 -6 27 -8
-3 -17 -25 -21 -51 -3 -25 -9 -51 -13 -56 -3 -6 -2 -11 3 -11 5 0 12 10 16 22
5 22 7 21 46 -17 22 -21 40 -45 40 -52 0 -19 -8 -16 -35 15 -13 15 -25 21 -25
15 0 -7 5 -13 10 -13 6 0 10 -6 10 -12 0 -7 8 -22 18 -33 9 -11 16 -18 15 -16
-2 2 3 11 9 19 7 8 11 28 10 45 -2 17 5 46 13 64 9 18 13 42 10 53 -4 11 -2
20 4 20 12 0 27 54 36 134 5 42 13 65 30 82 14 14 19 24 11 24 -7 0 -21 -9
-30 -19z m-79 -262 c6 -6 9 -18 6 -26 -4 -11 -8 -10 -19 4 -22 30 -12 47 13
22z"/>
<path d="M5694 6933 c-15 -27 -57 -93 -92 -148 -111 -171 -152 -257 -152 -321
0 -62 27 -127 62 -145 21 -11 20 -9 -4 19 -83 99 -63 179 126 481 79 126 99
161 92 161 -2 0 -17 -21 -32 -47z"/>
<path d="M7863 6566 c0 -13 -9 -40 -18 -60 -17 -36 -17 -40 -2 -66 21 -34 22
-46 3 -31 -17 14 -41 -11 -32 -35 4 -12 2 -15 -9 -10 -9 3 -15 0 -15 -10 0 -8
-5 -12 -10 -9 -6 4 -8 28 -5 58 l5 52 -15 -50 c-27 -88 -42 -166 -33 -171 21
-13 40 20 35 63 -2 24 -3 43 -1 43 2 0 11 -17 20 -37 13 -31 13 -44 4 -74 -9
-27 -9 -41 -1 -58 22 -41 43 -15 40 51 -1 18 2 42 7 53 7 17 6 18 -8 8 -12
-11 -17 -9 -25 10 -14 32 -6 47 27 47 23 0 30 6 39 32 9 26 8 37 -9 66 -22 37
-18 59 6 28 7 -11 17 -17 21 -13 3 4 -2 16 -12 27 -19 21 -13 42 7 22 23 -23
31 -12 10 11 -28 29 -29 46 -2 22 28 -25 25 -9 -4 25 -23 28 -23 28 -23 6z
m-13 -191 c0 -8 -4 -17 -10 -20 -6 -4 -10 5 -10 20 0 15 4 24 10 20 6 -3 10
-12 10 -20z m-30 -175 c0 -10 -4 -22 -10 -25 -6 -4 -10 7 -10 25 0 18 4 29 10
25 6 -3 10 -15 10 -25z"/>
<path d="M6201 6523 c26 -50 24 -99 -6 -150 -30 -53 -24 -56 10 -6 17 26 25
51 25 80 0 41 -26 113 -41 113 -4 0 2 -17 12 -37z"/>
<path d="M5813 6350 c-35 -23 -63 -44 -63 -47 0 -2 30 12 66 32 64 36 70 37
141 33 48 -3 71 -2 64 5 -5 5 -40 12 -78 14 -67 5 -69 4 -130 -37z"/>
<path d="M5558 6363 c-10 -2 -18 -9 -18 -14 0 -5 11 -7 25 -3 17 4 46 -3 86
-21 80 -35 86 -26 10 14 -60 31 -69 33 -103 24z"/>
<path d="M5642 6171 c-64 -36 -241 -162 -266 -190 -12 -13 -16 -27 -11 -42 5
-16 9 -18 15 -9 5 7 6 19 3 27 -3 7 0 13 6 13 6 0 11 -4 11 -10 0 -5 39 17 88
49 48 32 112 71 141 86 51 25 58 27 106 16 40 -9 60 -9 98 3 35 10 57 12 84 4
19 -5 43 -11 52 -13 9 -2 59 -17 111 -35 52 -17 100 -33 105 -34 6 -1 20 -7
32 -14 12 -7 30 -13 40 -15 10 -2 26 -7 35 -11 73 -32 213 -73 219 -65 4 7 9
4 12 -5 4 -9 11 -16 17 -16 6 0 8 6 5 13 -4 6 1 3 10 -8 16 -20 17 -20 13 5
-3 28 -53 57 -180 105 -444 168 -476 178 -533 170 -60 -8 -68 -8 -120 0 -33 5
-50 0 -93 -24z m385 -63 c-3 -8 -6 -5 -6 6 -1 11 2 17 5 13 3 -3 4 -12 1 -19z"/>
<path d="M5737 6089 c7 -7 15 -10 18 -7 3 3 -2 9 -12 12 -14 6 -15 5 -6 -5z"/>
<path d="M5875 6049 c-62 -18 -79 -18 -151 -8 -98 14 -116 8 -231 -88 -43 -36
-86 -69 -97 -75 -17 -9 -16 -12 10 -39 19 -20 34 -54 50 -117 29 -117 65 -186
112 -216 46 -30 192 -66 265 -66 69 0 186 22 253 48 79 29 127 68 290 229
l151 149 -89 17 c-67 13 -132 36 -261 95 -95 44 -185 81 -202 84 -17 4 -61 -3
-100 -13z m217 -76 c31 -17 65 -34 75 -37 10 -2 -13 -2 -52 2 -38 4 -90 6
-115 5 -288 -14 -409 -10 -417 14 -4 12 45 39 82 45 11 2 99 3 195 3 l175 -1
57 -31z m113 -93 c88 -16 173 -30 189 -32 l29 -3 -39 -38 c-40 -39 -130 -74
-160 -63 -8 3 -26 -1 -39 -10 -16 -11 -42 -15 -77 -13 -29 1 -86 -1 -126 -5
-53 -6 -76 -5 -88 5 -10 8 -18 9 -25 2 -12 -12 -109 -5 -126 9 -9 7 -18 7 -27
-1 -15 -13 -66 1 -66 18 0 5 -8 7 -18 4 -10 -2 -25 4 -33 14 -21 23 -41 105
-29 117 14 14 83 22 125 15 65 -12 156 -10 210 6 58 16 85 14 300 -25z m-610
-174 c11 -7 51 -23 88 -36 58 -19 90 -22 215 -22 81 0 177 3 215 7 55 6 67 5
67 -7 0 -28 -143 -128 -184 -128 -8 0 -16 -6 -18 -12 -3 -9 -35 -14 -97 -17
-209 -7 -387 88 -365 197 5 26 11 32 33 32 15 0 35 -6 46 -14z"/>
<path d="M7453 5505 c0 -8 4 -12 9 -9 5 3 6 10 3 15 -9 13 -12 11 -12 -6z"/>
<path d="M6799 5033 c-1 -5 -1 -11 -1 -14 1 -4 -17 -5 -38 -4 -22 1 -38 -1
-35 -5 2 -3 23 -5 47 -4 56 2 58 2 58 14 0 5 -7 6 -17 3 -11 -4 -14 -3 -9 5 4
7 5 12 2 12 -3 0 -7 -3 -7 -7z"/>
<path d="M5797 9113 c-10 -9 -9 -23 2 -23 5 0 11 7 15 15 5 15 -5 20 -17 8z"/>
<path d="M2821 8149 c-11 -9 -36 -20 -55 -23 -67 -13 -107 -35 -118 -67 -10
-29 -48 -60 -48 -39 0 5 7 10 16 10 9 0 14 6 12 13 -7 20 -28 14 -41 -13 -9
-18 -25 -28 -54 -34 -23 -5 -44 -16 -45 -24 -3 -13 -31 -32 -113 -78 -16 -9
-35 -24 -42 -33 -24 -33 -44 -55 -37 -41 4 8 14 24 23 34 16 19 15 19 -11 1
-16 -9 -29 -22 -29 -29 -1 -6 -2 -27 -3 -46 -1 -39 -11 -60 -29 -60 -7 0 -4 7
6 14 9 7 17 19 17 27 -1 9 -9 4 -23 -11 -12 -14 -54 -43 -92 -64 -74 -40 -108
-66 -100 -74 3 -3 12 3 20 14 8 10 15 14 15 7 0 -7 -9 -18 -20 -25 -11 -7 -20
-20 -20 -28 0 -13 1 -13 10 0 5 8 10 11 10 5 -1 -18 -27 -45 -44 -45 -9 0 -16
-7 -16 -16 0 -8 -4 -13 -8 -10 -5 3 -15 -6 -23 -20 -11 -22 -11 -27 1 -34 13
-8 12 -10 -2 -10 -9 0 -18 6 -21 13 -2 6 -10 -1 -17 -18 -34 -81 -41 -95 -50
-100 -6 -4 -10 -45 -10 -93 0 -104 -2 -132 -11 -126 -4 2 -12 -10 -19 -26 -11
-26 -9 -36 17 -89 26 -54 31 -57 47 -45 18 12 18 15 2 39 -9 14 -13 25 -8 25
5 0 16 -16 25 -36 10 -19 13 -33 7 -29 -6 3 -10 -4 -11 -17 0 -21 -1 -21 -8
-3 -5 12 -10 -17 -14 -78 -6 -99 5 -157 47 -252 32 -70 32 -70 -34 -90 -32
-10 -57 -22 -54 -27 3 -5 -2 -8 -12 -6 -12 2 -20 -4 -22 -17 -4 -18 -3 -18 14
-5 18 14 18 14 0 -15 -13 -19 -19 -45 -18 -75 1 -31 -1 -40 -7 -30 -6 8 -8 17
-5 21 2 4 0 10 -5 14 -6 3 -8 12 -5 19 7 17 -12 31 -21 16 -4 -6 -7 -31 -7
-56 0 -36 10 -61 43 -117 82 -139 107 -193 128 -272 12 -44 26 -92 32 -107 14
-34 50 -58 88 -58 16 0 42 -7 57 -15 16 -8 24 -15 17 -15 -8 0 -1 -25 18 -67
27 -58 32 -85 38 -183 8 -123 13 -138 101 -285 20 -33 49 -85 65 -116 18 -36
34 -55 42 -52 7 3 13 10 13 15 0 6 6 5 15 -2 8 -7 15 -20 14 -29 0 -12 -2 -11
-9 4 -12 28 -12 14 1 -45 6 -27 15 -50 20 -50 5 0 9 -6 9 -14 0 -22 28 -40 43
-28 9 8 21 2 45 -19 18 -16 28 -29 23 -29 -6 0 -21 11 -35 25 -14 14 -27 21
-31 16 -5 -10 54 -51 73 -51 17 0 99 -46 140 -79 21 -16 49 -32 63 -36 130
-29 158 -35 185 -35 17 0 43 -9 58 -21 14 -11 26 -16 26 -10 0 6 24 2 57 -10
31 -10 98 -24 147 -29 50 -6 108 -16 128 -22 31 -9 45 -8 75 5 25 10 81 17
158 21 113 4 125 7 200 42 76 36 87 38 210 45 97 5 143 12 183 28 29 11 61 21
72 21 11 0 20 4 20 10 0 5 16 12 36 16 39 7 59 31 68 85 4 20 15 47 26 59 11
13 20 34 20 48 0 15 13 36 35 56 19 18 40 48 46 67 6 19 25 63 41 98 19 43 27
73 23 90 -3 13 -1 54 6 90 10 57 9 78 -7 146 -10 44 -17 108 -16 143 1 46 -3
74 -18 102 -11 22 -20 55 -20 75 0 44 -12 68 -61 122 -39 43 -56 82 -46 108 4
8 -1 38 -9 67 -8 29 -21 86 -29 125 -8 40 -28 96 -44 125 -17 29 -37 85 -46
123 -17 74 -39 135 -84 225 -21 41 -34 94 -51 205 -12 83 -24 168 -25 190 -9
125 -23 233 -32 250 -6 11 -21 29 -32 39 -12 11 -21 25 -21 31 0 11 -39 67
-73 106 -8 9 -33 20 -56 24 -43 7 -64 27 -110 104 -13 22 -37 45 -53 52 -36
15 -51 42 -43 78 5 24 1 33 -27 54 -18 15 -41 33 -50 42 -10 8 -37 19 -60 24
-25 6 -53 22 -69 39 -19 20 -46 34 -81 42 -69 16 -88 26 -115 58 -31 37 -102
52 -182 38 -46 -7 -64 -7 -69 1 -5 7 -51 13 -124 15 -97 2 -121 0 -137 -13z
m-492 -331 c-13 -25 -39 -53 -39 -43 0 7 42 65 47 65 2 0 -2 -10 -8 -22z
m-366 -387 c3 -14 1 -18 -9 -14 -15 6 -18 16 -7 26 9 10 10 9 16 -12z m1289
-36 c4 -53 -12 -64 -84 -57 -39 3 -48 8 -48 23 0 10 -5 19 -11 19 -5 0 -8 4
-4 10 3 5 12 7 19 4 8 -3 22 6 33 20 13 19 27 25 54 26 37 0 37 -1 41 -45z
m-1311 -23 c-6 -12 -11 -37 -11 -58 0 -21 -3 -34 -7 -31 -11 11 -7 71 6 95 7
13 15 21 18 19 2 -3 0 -14 -6 -25z m-33 -109 c2 -37 1 -65 -1 -63 -9 10 -18
130 -10 130 4 0 9 -30 11 -67z m29 -35 c-3 -7 -5 -2 -5 12 0 14 2 19 5 13 2
-7 2 -19 0 -25z m-9 -53 c-9 -19 -14 -22 -21 -13 -6 9 -7 5 -3 -11 3 -17 2
-21 -6 -13 -5 5 -7 20 -3 32 6 18 9 20 16 9 7 -11 9 -10 9 4 0 9 4 17 10 17 6
0 5 -10 -2 -25z m-34 -80 c-4 -15 -1 -32 6 -40 9 -10 9 -15 1 -15 -6 0 -11 5
-11 10 0 6 -7 10 -15 10 -9 0 -15 9 -14 23 0 20 1 21 8 2 7 -17 8 -17 15 8 3
15 9 27 11 27 3 0 3 -11 -1 -25z m-4 -76 c0 -6 -4 -7 -10 -4 -5 3 -10 11 -10
16 0 6 5 7 10 4 6 -3 10 -11 10 -16z m20 -29 c0 -5 -2 -10 -4 -10 -3 0 -8 5
-11 10 -3 6 -1 10 4 10 6 0 11 -4 11 -10z m1532 -40 c-7 -19 -10 -20 -15 -7
-4 10 -2 17 3 17 6 0 11 10 11 23 1 13 3 16 6 6 2 -8 0 -26 -5 -39z m50 -45
c7 -16 19 -25 35 -25 12 0 23 -6 23 -12 0 -15 75 -98 88 -98 5 0 14 -12 20
-26 7 -14 16 -23 21 -20 4 3 17 -14 27 -37 10 -23 21 -44 25 -47 4 -3 8 -24
11 -47 3 -35 0 -43 -13 -43 -9 0 -22 -7 -29 -15 -9 -10 -9 -15 -1 -15 6 0 11
5 11 10 0 6 12 10 28 9 l27 0 -32 -16 c-20 -10 -33 -25 -34 -37 -1 -17 -2 -18
-6 -3 -2 9 -12 17 -21 17 -29 0 -82 -24 -82 -37 0 -7 -10 -12 -22 -12 -17 1
-19 2 -5 6 9 2 17 9 17 15 0 5 -7 7 -16 4 -10 -4 -27 5 -47 24 -17 16 -33 30
-36 30 -3 0 -8 60 -9 133 -3 83 -9 144 -18 166 -17 41 -18 73 -2 89 18 18 27
15 40 -13z m505 9 c4 -13 -54 -37 -68 -28 -5 3 -4 14 2 25 11 22 59 24 66 3z
m-177 -4 c0 -5 -4 -10 -10 -10 -5 0 -10 5 -10 10 0 6 5 10 10 10 6 0 10 -4 10
-10z m-53 -30 c-12 -3 -37 -13 -56 -23 -22 -13 -32 -15 -29 -6 2 7 24 23 48
36 34 18 45 20 52 11 5 -9 0 -15 -15 -18z m-1805 -83 c3 -47 1 -80 -5 -84 -6
-3 -7 -1 -4 4 9 15 -3 74 -14 67 -5 -3 -9 4 -9 15 0 12 5 21 10 21 6 0 10 11
10 24 0 14 -4 28 -10 31 -5 3 -10 1 -10 -6 0 -7 -2 -10 -5 -7 -3 3 -3 12 1 21
13 34 31 -9 36 -86z m858 43 c0 -5 -5 -10 -11 -10 -5 0 -7 5 -4 10 3 6 8 10
11 10 2 0 4 -4 4 -10z m216 -9 c23 -6 48 -19 55 -28 13 -15 12 -16 -6 -8 -11
5 -46 11 -77 13 -32 2 -58 5 -58 7 0 18 16 35 29 31 9 -3 35 -10 57 -15z
m-243 -21 c4 -17 0 -20 -33 -20 -51 0 -60 17 -18 34 37 16 43 14 51 -14z
m-856 -87 c-3 -10 -5 -4 -5 12 0 17 2 24 5 18 2 -7 2 -21 0 -30z m53 -46 c0
-5 -4 -5 -10 -2 -5 3 -10 14 -10 23 0 15 2 15 10 2 5 -8 10 -19 10 -23z m-16
-22 c3 -9 0 -15 -9 -15 -8 0 -15 7 -15 15 0 8 4 15 9 15 5 0 11 -7 15 -15z
m23 -17 c-3 -8 -6 -5 -6 6 -1 11 2 17 5 13 3 -3 4 -12 1 -19z m-7 -39 c0 -6
-4 -7 -10 -4 -5 3 -10 11 -10 16 0 6 5 7 10 4 6 -3 10 -11 10 -16z m590 11 c0
-5 -4 -10 -10 -10 -5 0 -10 5 -10 10 0 6 5 10 10 10 6 0 10 -4 10 -10z m254
-15 c3 -8 15 -15 26 -15 17 0 20 -6 20 -42 0 -57 -44 -142 -106 -205 -48 -49
-56 -53 -98 -53 -33 0 -51 5 -62 18 -31 37 -67 137 -71 198 -4 59 -4 61 24 73
16 6 73 14 128 16 55 2 101 9 103 15 5 15 29 12 36 -5z m-827 -25 c-1 -12 -5
-16 -10 -11 -5 5 -6 14 -3 20 11 16 15 13 13 -9z m33 -23 c0 -5 -4 -5 -10 -2
-5 3 -10 14 -10 23 0 15 2 15 10 2 5 -8 10 -19 10 -23z m1819 -11 c-2 -2 -24
-6 -49 -9 -30 -4 -38 -3 -25 3 19 8 83 14 74 6z m-104 -36 c-28 -12 -37 -12
-30 0 3 6 16 10 28 9 21 0 21 -1 2 -9z m115 -35 c-7 -9 -15 -13 -19 -10 -3 3
1 10 9 15 21 14 24 12 10 -5z m-250 1 c0 -3 -4 -8 -10 -11 -5 -3 -10 -1 -10 4
0 6 5 11 10 11 6 0 10 -2 10 -4z m-43 -32 c-3 -3 -12 -4 -19 -1 -8 3 -5 6 6 6
11 1 17 -2 13 -5z m319 -5 c4 -8 9 -7 15 2 10 16 11 1 1 -21 -6 -12 -19 -14
-62 -9 -38 4 -46 7 -25 9 17 2 38 2 49 1 16 -1 17 1 6 14 -8 9 -8 15 -2 15 6
0 14 -5 18 -11z m-178 -36 c-2 -27 -8 -39 -20 -41 -19 -4 -26 32 -8 43 5 3 7
12 3 20 -3 10 1 15 12 15 13 0 16 -8 13 -37z m-138 3 c0 -7 9 -16 20 -19 23
-6 27 -25 6 -33 -19 -7 -57 32 -50 51 8 19 24 20 24 1z m-1780 -32 c0 -8 -5
-12 -10 -9 -6 4 -8 11 -5 16 9 14 15 11 15 -7z m1418 -8 c-7 -8 -15 -12 -17
-11 -5 6 10 25 20 25 5 0 4 -6 -3 -14z m33 -10 c-9 -11 -7 -15 11 -20 13 -3
34 -6 48 -7 15 0 19 -3 10 -6 -8 -3 -37 -16 -65 -28 -85 -39 -165 -65 -165
-55 0 6 5 10 10 10 6 0 10 8 10 18 0 15 2 15 10 2 8 -11 9 -8 4 13 -5 22 -3
27 12 28 18 0 17 1 -1 9 -18 8 -17 9 7 9 15 1 30 6 33 12 4 6 13 8 20 5 7 -2
21 2 32 9 23 18 39 19 24 1z m49 -12 c0 -2 -7 -4 -15 -4 -8 0 -15 4 -15 10 0
5 7 7 15 4 8 -4 15 -8 15 -10z m-1493 -16 c-3 -8 -6 -5 -6 6 -1 11 2 17 5 13
3 -3 4 -12 1 -19z m54 -50 c11 -22 18 -42 16 -45 -3 -2 -8 5 -12 18 -6 17 -9
19 -17 8 -7 -10 -7 -8 -3 9 3 12 2 22 -3 22 -5 0 -12 9 -15 20 -8 31 11 13 34
-32z m156 20 c-3 -8 -6 -5 -6 6 -1 11 2 17 5 13 3 -3 4 -12 1 -19z m1743 -72
c0 -3 -4 -8 -10 -11 -5 -3 -10 -1 -10 4 0 6 5 11 10 11 6 0 10 -2 10 -4z
m-1850 -31 c14 -19 14 -19 -2 -6 -10 7 -18 18 -18 24 0 6 1 8 3 6 1 -2 9 -13
17 -24z m1745 3 c11 1 31 4 45 7 21 4 22 4 8 -5 -10 -6 -18 -19 -18 -28 0 -10
-3 -13 -8 -7 -8 12 -63 15 -56 3 3 -4 13 -9 22 -9 9 -1 -21 -5 -68 -9 -47 -4
-93 -11 -102 -15 -11 -4 -18 -3 -18 4 0 6 8 11 18 12 9 0 12 3 5 5 -6 3 -25
-2 -42 -11 -33 -17 -40 -12 -17 10 7 8 17 11 21 7 5 -4 5 -1 1 6 -6 10 -14 9
-37 -5 -22 -13 -31 -15 -41 -5 -9 9 -6 12 13 12 14 0 29 3 33 8 18 18 95 31
156 25 36 -3 74 -5 85 -5z m-1757 -34 c-4 -3 -12 5 -18 18 -12 22 -12 22 6 6
10 -10 15 -20 12 -24z m147 -14 c3 -5 1 -10 -4 -10 -6 0 -11 5 -11 10 0 6 2
10 4 10 3 0 8 -4 11 -10z m-116 -11 c5 8 11 9 15 3 3 -6 2 -13 -4 -17 -5 -3
-10 -11 -10 -17 0 -7 5 -7 14 1 11 9 15 7 19 -9 3 -11 1 -20 -3 -20 -5 0 -10
-6 -13 -12 -2 -7 -2 -2 0 10 2 13 0 21 -6 18 -8 -6 -41 35 -41 51 0 4 5 1 10
-7 8 -12 11 -13 19 -1z m1441 0 c0 -6 -8 -8 -19 -4 -20 6 -71 -13 -71 -26 0
-9 28 -1 48 14 8 6 12 6 12 -1 0 -11 -19 -19 -59 -27 -12 -2 -19 0 -16 6 4 5
1 9 -4 9 -6 0 -11 -5 -11 -10 0 -6 -6 -10 -12 -9 -28 3 -37 -2 -32 -18 5 -14
4 -15 -4 -4 -7 10 -14 10 -30 2 -31 -17 -40 -13 -13 6 33 23 161 72 189 73 12
0 22 -5 22 -11z m-1271 -76 c6 -12 11 -30 11 -39 0 -16 -1 -16 -15 2 -15 19
-15 19 -9 -1 4 -13 -2 -9 -15 10 -11 17 -21 45 -21 64 l0 34 19 -24 c10 -13
23 -34 30 -46z m1818 33 c-3 -8 -1 -17 6 -19 22 -9 -79 -46 -169 -63 -49 -9
-114 -21 -144 -26 -30 -6 -69 -11 -86 -13 -17 -1 -35 -5 -40 -8 -17 -10 -150
-16 -165 -7 -12 8 -12 11 1 24 26 26 200 77 290 85 47 5 101 15 120 24 48 21
195 23 187 3z m-660 -22 c-3 -3 -12 -4 -19 -1 -8 3 -5 6 6 6 11 1 17 -2 13 -5z
m-1280 -26 c-3 -8 -6 -5 -6 6 -1 11 2 17 5 13 3 -3 4 -12 1 -19z m-2 -28 c10
9 16 3 25 -25 7 -20 9 -39 6 -42 -3 -4 -9 8 -12 25 -4 18 -11 32 -15 32 -5 0
-6 -12 -3 -27 5 -19 3 -25 -4 -18 -5 6 -12 24 -14 40 -3 17 -3 24 -1 17 4 -10
8 -10 18 -2z m19 -110 c-5 -5 -10 3 -11 18 -1 22 0 24 9 8 6 -10 6 -22 2 -26z
m1776 24 c0 -33 -260 -66 -340 -44 l-45 13 30 8 c33 8 188 23 248 23 20 1 37
4 37 9 0 4 16 7 35 5 19 -1 35 -7 35 -14z m-1753 -16 c-3 -8 -6 -5 -6 6 -1 11
2 17 5 13 3 -3 4 -12 1 -19z m0 -40 c-3 -8 -6 -5 -6 6 -1 11 2 17 5 13 3 -3 4
-12 1 -19z m27 -30 c-3 -4 0 -8 7 -8 7 0 10 -2 7 -5 -7 -7 -38 5 -38 14 0 4 7
8 15 8 8 0 12 -4 9 -9z m150 -77 c-6 -6 -24 19 -24 34 1 6 7 1 15 -9 8 -11 12
-22 9 -25z m-18 -36 c9 -39 0 -30 -15 15 -6 19 -7 30 -2 25 5 -6 13 -23 17
-40z m29 15 c3 -5 1 -10 -4 -10 -6 0 -11 5 -11 10 0 6 2 10 4 10 3 0 8 -4 11
-10z m-8 -62 c-3 -7 -5 -2 -5 12 0 14 2 19 5 13 2 -7 2 -19 0 -25z m46 -38 c2
-19 2 -27 0 -17 -2 9 -7 17 -11 17 -4 0 -7 11 -7 25 0 34 13 17 18 -25z m-15
-55 c0 -5 -6 4 -13 20 -8 17 -14 37 -14 45 0 8 7 -1 14 -20 7 -19 13 -39 13
-45z m-1 -107 c-3 -7 -5 -2 -5 12 0 14 2 19 5 13 2 -7 2 -19 0 -25z m30 -55
c-3 -10 -5 -4 -5 12 0 17 2 24 5 18 2 -7 2 -21 0 -30z m55 -135 c-2 -10 -8
-18 -13 -18 -5 0 -6 7 -3 15 4 8 -1 33 -10 55 -23 58 -19 63 8 10 12 -25 20
-53 18 -62z m-42 57 c0 -5 -5 -3 -10 5 -5 8 -10 20 -10 25 0 6 5 3 10 -5 5 -8
10 -19 10 -25z m70 -75 c0 -5 13 -28 28 -52 32 -47 47 -82 33 -73 -5 3 -11 -2
-13 -11 -2 -13 -7 -10 -18 12 -8 16 -23 40 -33 53 -11 16 -14 27 -7 31 8 5 8
15 0 34 -6 17 -6 25 0 21 6 -3 10 -10 10 -15z m74 -164 c-3 -9 -10 -16 -15
-16 -5 0 -4 9 3 20 14 22 21 20 12 -4z m71 -66 c-4 -6 -11 -8 -16 -4 -6 3 -8
-6 -4 -23 5 -26 5 -26 -5 -5 -11 27 -6 42 16 42 8 0 12 -5 9 -10z m28 -69 c3
-11 -1 -22 -8 -24 -8 -4 -10 3 -7 19 5 29 8 30 15 5z m278 -197 c8 -10 -1 -8
-23 6 -20 11 -42 28 -49 36 -8 10 1 8 23 -6 20 -11 42 -28 49 -36z"/>
<path d="M2340 5218 c0 -10 4 -18 8 -18 5 0 15 -12 22 -27 7 -16 15 -23 17
-16 2 7 -1 18 -7 25 -6 7 -17 22 -25 33 -13 18 -14 18 -15 3z"/>
<path d="M10198 8093 c7 -3 16 -2 19 1 4 3 -2 6 -13 5 -11 0 -14 -3 -6 -6z"/>
<path d="M10326 8050 c12 -5 25 -13 29 -19 3 -6 16 -11 28 -11 18 1 16 4 -13
20 -19 11 -42 19 -50 19 -9 0 -6 -4 6 -9z"/>
<path d="M4250 8001 c0 -17 18 -21 24 -6 3 9 0 15 -9 15 -8 0 -15 -4 -15 -9z"/>
<path d="M10444 7995 c11 -8 27 -15 35 -15 23 0 -1 20 -30 25 -23 4 -23 4 -5
-10z"/>
<path d="M10500 7962 c0 -6 9 -13 19 -17 11 -3 26 -17 35 -30 9 -14 23 -25 31
-25 17 0 123 -84 159 -127 15 -18 35 -35 46 -38 11 -3 17 -12 14 -19 -3 -8 3
-22 13 -32 10 -11 25 -31 32 -46 8 -16 18 -28 22 -28 12 0 61 -108 55 -119 -4
-6 -2 -18 3 -28 29 -54 38 -106 39 -217 1 -66 4 -122 7 -125 3 -3 14 -1 23 5
12 8 17 27 19 67 1 32 -2 57 -6 57 -4 0 -8 30 -8 68 1 45 -6 85 -20 122 -12
30 -22 49 -22 43 -1 -18 -21 -16 -21 2 0 8 7 15 15 15 8 0 15 2 15 5 0 14 -38
83 -57 105 -13 14 -23 28 -23 32 0 5 -5 8 -10 8 -7 0 -7 -8 1 -22 12 -23 12
-23 -8 -3 -13 13 -16 22 -9 27 8 5 7 11 -2 20 -6 6 -12 20 -12 29 0 19 -40 49
-67 50 -10 0 -13 3 -6 5 14 6 6 34 -9 34 -6 0 -7 -7 -4 -16 3 -9 2 -12 -5 -9
-6 4 -8 13 -5 20 6 17 -35 54 -53 47 -8 -2 -11 0 -7 6 6 10 -84 72 -104 72 -5
0 -12 4 -15 10 -4 6 1 7 12 3 14 -4 15 -3 7 6 -6 7 -19 14 -28 15 -10 1 -22 9
-27 17 -5 8 -9 10 -9 5 0 -5 -7 -3 -15 4 -9 8 -15 8 -15 2z m341 -280 c11 -29
5 -28 -16 4 -11 17 -12 25 -4 22 6 -2 16 -14 20 -26z m84 -112 c3 -5 2 -10 -4
-10 -5 0 -13 5 -16 10 -3 6 -2 10 4 10 5 0 13 -4 16 -10z m50 -171 c9 -17 14
-33 12 -36 -4 -3 -37 53 -37 64 0 11 12 -1 25 -28z m19 -82 c-4 -12 -7 -42 -7
-67 1 -42 0 -43 -6 -10 -8 46 -1 111 10 104 6 -3 7 -15 3 -27z m16 -117 c0 -5
-5 -10 -11 -10 -5 0 -7 5 -4 10 3 6 8 10 11 10 2 0 4 -4 4 -10z"/>
<path d="M2428 7943 c7 -3 16 -2 19 1 4 3 -2 6 -13 5 -11 0 -14 -3 -6 -6z"/>
<path d="M10610 7211 c0 -27 4 -52 9 -55 5 -3 9 16 9 44 1 27 -3 52 -9 55 -5
4 -9 -15 -9 -44z"/>
<path d="M11000 7099 c0 -5 -4 -8 -9 -5 -5 3 -16 -54 -25 -127 -10 -72 -24
-152 -32 -176 -8 -25 -14 -63 -14 -87 0 -25 -6 -47 -15 -54 -9 -7 -15 -29 -15
-51 0 -22 -5 -39 -11 -39 -6 0 -9 -9 -6 -20 3 -11 1 -18 -3 -15 -7 4 -22 -24
-25 -45 0 -3 -24 -53 -53 -112 -30 -59 -55 -113 -56 -120 -8 -35 -23 -51 -76
-78 -69 -35 -71 -39 -139 -260 -28 -91 -71 -219 -96 -285 -26 -66 -51 -133
-57 -150 -72 -192 -244 -383 -563 -626 -60 -46 -137 -105 -170 -132 -59 -47
-156 -87 -210 -87 -13 0 -27 -5 -31 -11 -15 -25 165 15 205 45 12 9 13 8 7 -3
-6 -8 0 -7 18 4 14 9 23 22 19 28 -3 6 -1 7 6 3 13 -8 143 92 136 105 -3 4 0
11 6 15 8 5 9 3 4 -6 -5 -8 -3 -11 6 -8 8 3 13 10 12 16 -1 5 8 18 20 28 l22
19 -19 -22 c-11 -13 -15 -23 -9 -23 12 0 50 40 45 47 -2 3 0 8 4 11 4 4 4 1
-1 -7 -5 -9 -3 -12 6 -9 8 3 13 10 12 16 -2 6 30 37 70 69 39 31 86 72 103 91
23 24 34 30 39 21 6 -8 4 -10 -5 -4 -9 6 -11 4 -5 -5 6 -9 4 -11 -6 -5 -8 5
-11 5 -7 1 5 -7 -19 -30 -117 -108 -5 -5 -23 -18 -38 -29 -15 -12 -26 -23 -23
-26 11 -12 286 227 286 249 0 5 -11 1 -25 -8 -14 -9 -23 -19 -21 -22 3 -2 -2
-11 -10 -19 -31 -31 -23 -4 9 31 22 23 40 34 49 31 21 -8 62 43 48 60 -7 8 -4
17 9 29 11 10 21 13 25 7 4 -5 -3 -13 -15 -16 -15 -5 -18 -10 -10 -18 8 -8 15
-6 26 9 8 10 15 25 15 32 0 7 4 11 9 8 5 -4 15 7 23 24 7 16 16 30 19 30 3 0
21 29 39 65 l33 65 71 -6 c74 -6 128 6 124 28 -2 7 6 13 18 14 28 2 85 44 77
57 -3 6 -1 7 4 4 13 -8 36 17 25 28 -4 5 -2 5 4 2 6 -4 22 6 35 21 16 17 17
21 5 12 -19 -15 -19 -14 -2 13 17 24 36 41 21 17 -3 -5 -4 -10 -2 -10 3 0 14
16 26 35 11 19 16 35 11 35 -6 0 -10 7 -10 15 0 20 32 85 42 85 13 0 9 -17 -8
-34 -8 -9 -12 -21 -8 -27 4 -8 3 -9 -4 -5 -7 4 -12 1 -12 -8 0 -34 19 -12 63
77 36 71 48 107 51 153 3 32 9 72 15 87 36 95 -30 167 -153 167 -37 0 -38 1
-31 28 4 15 7 38 7 52 -1 15 1 20 6 13 5 -7 18 9 35 45 16 31 37 74 48 94 10
20 19 42 19 48 0 5 11 33 25 62 14 28 25 61 25 73 0 11 5 26 11 32 6 6 13 36
14 66 2 30 8 64 14 75 6 12 13 38 15 59 2 21 7 55 11 76 6 31 4 41 -11 53 -14
10 -15 13 -3 8 20 -6 25 7 28 74 1 31 -2 52 -9 52 -5 0 -10 -5 -10 -11z m0
-64 c-9 -11 -9 -15 -1 -15 6 0 11 -4 11 -10 0 -16 -17 -11 -24 7 -4 9 -1 20 6
25 7 4 9 8 5 8 -5 0 -5 5 -1 12 6 9 9 9 12 0 2 -7 -2 -19 -8 -27z m-13 -112
c-3 -10 -5 -4 -5 12 0 17 2 24 5 18 2 -7 2 -21 0 -30z m-15 -111 c-7 -2 -10
-8 -7 -13 4 -5 2 -17 -4 -26 -8 -15 -10 -14 -7 7 1 14 5 31 9 37 4 7 5 25 2
40 -3 22 -2 20 7 -6 9 -27 9 -36 0 -39z m-25 -84 c-3 -8 -6 -5 -6 6 -1 11 2
17 5 13 3 -3 4 -12 1 -19z m7 -60 c-10 -16 -21 -7 -21 17 0 23 1 24 12 8 7
-10 11 -21 9 -25z m-35 -44 c12 8 9 -28 -4 -40 -8 -9 -11 -2 -11 24 0 19 2 30
4 23 2 -6 7 -9 11 -7z m-16 -84 c-3 -12 -8 -19 -11 -16 -5 6 5 36 12 36 2 0 2
-9 -1 -20z m-23 -65 c0 -8 -2 -15 -4 -15 -2 0 -6 7 -10 15 -3 8 -1 15 4 15 6
0 10 -7 10 -15z m-30 -45 c-6 -12 -14 -20 -17 -17 -2 3 1 14 8 26 7 11 15 18
17 16 2 -2 -2 -13 -8 -25z m-25 -66 c-8 -16 -15 -23 -15 -16 0 13 22 53 27 48
2 -2 -3 -16 -12 -32z m-66 -128 c-9 -8 -10 -7 -5 7 3 10 7 24 7 30 1 7 3 4 6
-7 3 -10 -1 -23 -8 -30z m-9 -20 c0 -3 -4 -8 -10 -11 -5 -3 -10 -1 -10 4 0 6
5 11 10 11 6 0 10 -2 10 -4z m94 -40 c41 -17 66 -51 66 -90 l0 -30 -16 23
c-14 20 -23 23 -58 19 -68 -8 -134 -47 -195 -118 -43 -49 -49 -59 -25 -42 28
19 33 20 44 7 7 -8 9 -15 4 -15 -5 0 -4 -4 2 -8 20 -13 33 -69 24 -105 -17
-78 -66 -127 -128 -127 -27 -1 -80 -36 -69 -46 3 -4 18 3 33 15 15 12 41 21
61 21 40 0 75 33 104 95 25 54 24 102 -5 159 -23 45 -23 47 -6 69 25 31 121
77 162 77 48 0 57 -21 48 -111 -9 -83 -28 -133 -103 -264 -64 -112 -122 -175
-208 -226 -63 -36 -118 -52 -104 -29 3 5 0 7 -9 4 -8 -3 -27 2 -43 12 -15 10
-29 19 -31 20 -4 2 49 147 58 159 4 6 19 51 34 100 84 288 112 368 135 389 24
22 118 54 159 55 18 1 48 -5 66 -13z m61 -7 c11 -16 1 -19 -13 -3 -7 8 -8 14
-3 14 5 0 13 -5 16 -11z m54 -68 c0 -12 -3 -11 -9 4 -8 18 -9 17 -9 -7 -1 -16
3 -28 8 -28 5 0 7 -10 3 -22 -5 -20 -6 -20 -12 -2 -4 10 -10 38 -13 62 -5 42
-5 43 14 26 10 -9 19 -24 18 -33z m-32 -135 c-6 -22 -11 -56 -11 -74 0 -21 -2
-28 -8 -20 -4 7 -5 31 -1 53 3 22 6 48 5 58 0 9 3 17 8 17 5 0 7 8 4 18 -5 13
-4 14 4 3 6 -8 6 -28 -1 -55z m-31 -133 c-10 -10 -19 5 -10 18 6 11 8 11 12 0
2 -7 1 -15 -2 -18z m-6 -23 c0 -5 -4 -10 -10 -10 -5 0 -10 5 -10 10 0 6 5 10
10 10 6 0 10 -4 10 -10z m-79 -147 c-6 -10 -11 -14 -11 -9 0 5 -7 3 -15 -4
-13 -10 -12 -6 2 18 10 17 22 27 26 23 5 -5 4 -17 -2 -28z m-121 -137 c0 -3
-15 -15 -32 -27 l-33 -22 25 26 c23 24 40 33 40 23z m-298 -98 c-4 -17 -6 -18
-13 -5 -11 19 0 55 11 37 4 -7 5 -21 2 -32z m-16 -45 c-3 -4 -6 -1 -6 6 0 7
-9 3 -21 -10 l-20 -24 17 32 c15 27 20 30 27 17 5 -8 6 -18 3 -21z m-18 -33
c-7 -10 -14 -17 -16 -15 -2 2 -15 -8 -29 -23 -14 -15 -20 -18 -12 -7 11 18 60
65 67 65 1 0 -3 -9 -10 -20z m-128 -166 c0 -8 -5 -12 -10 -9 -6 4 -8 11 -5 16
9 14 15 11 15 -7z m-495 -422 c-6 -4 -25 -20 -42 -36 -18 -17 -33 -26 -33 -22
0 10 62 66 74 66 6 0 6 -3 1 -8z"/>
<path d="M10475 5672 c3 -3 0 -11 -6 -19 -6 -7 -7 -13 -3 -13 5 0 14 8 21 18
9 15 8 19 -3 19 -8 0 -12 -3 -9 -5z"/>
<path d="M10156 7004 c-24 -24 -19 -30 7 -8 12 10 24 20 26 21 2 2 -1 3 -7 3
-6 0 -18 -7 -26 -16z"/>
<path d="M10360 6992 c0 -7 5 -12 10 -12 6 0 15 -10 20 -22 6 -15 9 -17 9 -7
1 9 -8 24 -19 34 -11 10 -20 13 -20 7z"/>
<path d="M8251 6960 c-76 -35 -124 -97 -172 -218 -23 -59 -44 -109 -48 -112
-3 -3 -13 -14 -21 -25 -15 -19 -14 -19 10 -4 15 10 37 45 56 90 68 164 98 207
178 251 37 20 111 23 146 5 36 -18 60 -94 66 -206 4 -71 2 -109 -10 -146 -21
-66 -13 -70 9 -4 14 42 17 75 13 163 -8 168 -36 216 -131 223 -38 3 -64 -2
-96 -17z"/>
<path d="M10361 6949 c-1 -9 10 -37 24 -63 14 -26 25 -57 26 -69 1 -20 2 -20
8 3 5 14 4 33 -1 42 -4 9 -9 29 -9 45 l-1 28 -7 -30 -7 -30 -16 45 c-9 25 -17
38 -17 29z"/>
<path d="M5222 6930 c0 -14 2 -19 5 -12 2 6 2 18 0 25 -3 6 -5 1 -5 -13z"/>
<path d="M10251 6950 c-1 -3 8 -30 20 -60 11 -30 19 -65 16 -77 -3 -17 0 -23
14 -23 22 0 23 4 9 28 -13 24 -34 104 -31 122 1 12 0 13 -7 1 -8 -11 -10 -11
-15 0 -3 8 -6 12 -6 9z"/>
<path d="M10121 6914 c0 -11 3 -14 6 -6 3 7 2 16 -1 19 -3 4 -6 -2 -5 -13z"/>
<path d="M10330 6905 c0 -23 -1 -29 -11 -47 -6 -12 -6 -18 0 -18 5 0 12 8 15
18 2 9 7 27 11 40 4 13 2 22 -4 22 -6 0 -11 -7 -11 -15z"/>
<path d="M10187 6886 c20 -26 27 -28 17 -3 -3 8 -12 18 -20 21 -11 4 -10 0 3
-18z"/>
<path d="M5214 6887 c-2 -7 0 -24 6 -38 10 -23 10 -23 5 4 -4 18 -2 26 4 22 7
-3 8 0 5 9 -7 19 -13 20 -20 3z"/>
<path d="M10239 6873 c24 -35 27 -59 9 -66 -8 -3 -6 -6 5 -6 26 -1 21 39 -9
74 l-26 30 21 -32z"/>
<path d="M8807 6841 c-41 -36 -100 -139 -71 -123 11 6 28 20 39 32 11 12 33
29 48 37 31 16 64 12 251 -27 54 -12 105 -20 113 -18 9 2 0 19 -28 53 -37 46
-46 51 -102 61 -34 7 -97 12 -139 13 -72 1 -80 -1 -111 -28z"/>
<path d="M10495 6860 c-3 -5 1 -10 9 -10 9 0 16 5 16 10 0 6 -4 10 -9 10 -6 0
-13 -4 -16 -10z"/>
<path d="M10141 6838 c-1 -18 45 -55 55 -45 3 3 -3 8 -14 11 -10 4 -24 16 -30
29 -8 17 -11 18 -11 5z"/>
<path d="M10213 6826 c0 -18 3 -24 9 -18 7 7 7 16 0 28 -8 14 -9 13 -9 -10z"/>
<path d="M10352 6825 c-16 -34 -15 -42 4 -49 14 -5 15 -4 5 8 -10 11 -10 20 0
37 10 20 12 21 21 5 5 -10 7 -29 4 -43 -5 -16 -3 -22 4 -18 14 9 13 58 -2 73
-17 17 -23 15 -36 -13z"/>
<path d="M10470 6841 c0 -8 -7 -11 -17 -6 -15 5 -16 4 -5 -6 9 -10 15 -10 24
-1 6 6 9 15 5 19 -4 3 -7 1 -7 -6z"/>
<path d="M10492 6820 c0 -8 4 -26 8 -40 6 -20 8 -21 8 -5 0 11 -3 29 -8 40 -5
12 -8 14 -8 5z"/>
<path d="M10522 6785 c0 -16 2 -22 5 -12 2 9 2 23 0 30 -3 6 -5 -1 -5 -18z"/>
<path d="M10411 6776 c-9 -11 -10 -20 -1 -35 14 -28 18 -26 12 5 -4 20 -1 25
9 22 19 -6 24 -49 7 -59 -11 -7 -11 -9 0 -9 8 0 22 -10 32 -22 15 -19 20 -20
33 -10 10 9 17 10 22 2 10 -16 -4 -30 -23 -24 -16 5 -16 5 0 -6 10 -6 15 -17
11 -26 -3 -8 1 -22 9 -32 9 -9 17 -24 20 -32 3 -9 10 0 17 23 11 32 11 41 -2
55 -19 22 -32 82 -18 82 8 0 7 7 -1 20 -17 27 -30 25 -23 -3 4 -16 0 -28 -11
-38 -15 -12 -16 -12 -10 8 4 12 2 24 -4 28 -6 4 -10 3 -9 -2 3 -20 -2 -34 -10
-28 -5 3 -9 19 -9 35 1 28 -16 60 -32 60 -4 0 -13 -6 -19 -14z m146 -162 c8
-21 -13 -42 -28 -27 -13 13 -5 43 11 43 6 0 13 -7 17 -16z"/>
<path d="M10607 6729 c4 -13 8 -18 11 -10 2 7 -1 18 -6 23 -8 8 -9 4 -5 -13z"/>
<path d="M10030 6698 c-11 -12 -20 -25 -20 -30 0 -4 -3 -7 -7 -6 -5 1 -21 -2
-37 -7 -51 -14 -5 -25 192 -46 216 -23 251 -35 314 -110 23 -27 43 -47 45 -45
9 8 -65 152 -88 172 -29 26 -133 61 -237 80 -109 19 -138 18 -162 -8z"/>
<path d="M10614 6684 c-3 -10 -10 -29 -15 -42 -13 -33 -11 -42 7 -35 13 5 15
2 10 -15 -18 -57 -54 -133 -62 -134 -11 0 -33 -91 -34 -141 0 -71 41 -107 54
-46 8 42 8 49 -4 49 -5 0 -10 -11 -10 -24 0 -34 -18 -42 -26 -11 -10 39 3 91
53 207 37 88 43 111 33 123 -9 11 -9 22 -1 46 6 18 9 34 6 37 -2 3 -7 -4 -11
-14z"/>
<path d="M8360 6626 c0 -67 -44 -194 -90 -260 -22 -31 -40 -60 -40 -63 0 -18
55 62 92 132 36 69 42 91 46 157 3 43 2 78 -2 78 -3 0 -6 -20 -6 -44z"/>
<path d="M8943 6594 c4 -4 31 -9 60 -11 66 -4 144 -22 181 -40 18 -10 26 -11
21 -3 -16 25 -93 49 -180 56 -49 4 -86 3 -82 -2z"/>
<path d="M10561 6529 c-12 -35 -17 -59 -12 -54 11 12 42 107 37 112 -2 2 -13
-24 -25 -58z"/>
<path d="M8884 6555 c-17 -13 -16 -14 16 -5 66 19 76 15 72 -27 -3 -31 1 -43
23 -63 38 -36 99 -34 131 3 13 16 24 35 24 43 0 11 6 14 23 9 22 -6 22 -6 2
10 -52 42 -248 62 -291 30z m136 -15 c0 -5 -4 -10 -9 -10 -6 0 -13 5 -16 10
-3 6 1 10 9 10 9 0 16 -4 16 -10z"/>
<path d="M8829 6519 c-23 -19 -23 -20 -2 -10 12 6 25 16 28 21 10 16 -1 12
-26 -11z"/>
<path d="M8415 6500 c-9 -16 -13 -30 -11 -30 3 0 12 14 21 30 9 17 13 30 11
30 -3 0 -12 -13 -21 -30z"/>
<path d="M8579 6500 c18 -4 42 -17 53 -28 19 -18 19 -24 7 -76 -13 -59 -17
-64 -38 -43 -10 10 -11 9 -6 -5 4 -11 2 -18 -4 -18 -6 0 -11 -5 -11 -11 0 -8
5 -8 15 1 19 16 19 5 3 -105 -9 -65 -9 -109 1 -211 10 -98 11 -146 3 -199 -7
-40 -8 -73 -3 -78 15 -15 24 139 15 242 -15 158 -10 246 19 358 28 106 34 173
16 173 -5 0 -7 -6 -3 -12 4 -7 -2 -5 -13 5 -11 10 -34 17 -54 16 l-34 -1 34
-8z"/>
<path d="M8515 6480 c-10 -11 -16 -22 -14 -24 2 -2 12 7 22 20 22 29 17 32 -8
4z"/>
<path d="M9938 6474 c-38 -11 -15 -19 48 -16 78 4 190 -19 258 -53 27 -14 51
-23 53 -22 1 2 -9 10 -25 18 -15 8 -29 17 -32 20 -24 28 -251 68 -302 53z"/>
<path d="M1804 6455 c-4 -9 -2 -21 3 -26 7 -7 12 -3 16 10 6 25 -11 39 -19 16z"/>
<path d="M9970 6440 c-24 -8 -23 -8 8 -9 17 -1 32 4 32 9 0 11 -5 11 -40 0z"/>
<path d="M10016 6428 c-19 -73 14 -118 86 -118 51 0 77 14 92 52 l13 30 34
-34 c19 -18 44 -47 57 -63 l23 -30 -23 44 c-37 71 -122 122 -224 136 -48 6
-52 5 -58 -17z m41 -24 c-9 -9 -28 6 -21 18 4 6 10 6 17 -1 6 -6 8 -13 4 -17z"/>
<path d="M8490 6413 c0 -25 1 -25 13 -9 12 17 15 16 47 -10 18 -16 31 -22 28
-14 -5 15 -64 60 -79 60 -5 0 -9 -12 -9 -27z"/>
<path d="M8541 6261 c-27 -63 -27 -116 0 -166 11 -22 27 -58 34 -80 9 -29 13
-34 14 -17 1 13 -10 44 -24 70 -30 56 -34 145 -9 198 9 19 14 37 12 40 -3 2
-15 -18 -27 -45z"/>
<path d="M8160 6270 c-14 -5 -44 -14 -67 -20 -24 -6 -43 -15 -43 -20 0 -12 17
-13 24 -1 3 5 25 12 50 15 24 4 52 13 62 21 21 16 12 17 -26 5z"/>
<path d="M8461 6184 c0 -11 3 -14 6 -6 3 7 2 16 -1 19 -3 4 -6 -2 -5 -13z"/>
<path d="M8471 6094 c0 -11 3 -14 6 -6 3 7 2 16 -1 19 -3 4 -6 -2 -5 -13z"/>
<path d="M8512 5860 c0 -19 2 -27 5 -17 2 9 2 25 0 35 -3 9 -5 1 -5 -18z"/>
<path d="M8520 5818 c0 -31 43 -78 58 -63 3 3 0 5 -6 5 -7 0 -21 15 -32 33
-11 17 -20 29 -20 25z"/>
<path d="M9209 5764 c24 -7 59 -25 78 -40 19 -14 36 -24 39 -21 2 2 -17 20
-42 41 -36 27 -56 36 -83 35 l-36 -1 44 -14z"/>
<path d="M9723 5733 c-10 -34 -10 -36 3 -19 12 17 20 56 11 56 -1 0 -7 -17
-14 -37z"/>
<path d="M9505 5720 c-11 -4 -33 -13 -49 -19 -47 -19 -24 -22 28 -5 36 13 56
14 86 6 49 -12 52 -6 5 14 -39 16 -42 16 -70 4z"/>
<path d="M8594 5595 c0 -49 1 -71 3 -48 2 23 2 64 0 90 -2 26 -3 8 -3 -42z"/>
<path d="M9296 5534 c-3 -9 -6 -17 -6 -19 0 -9 33 -35 43 -35 6 0 1 7 -11 16
-16 11 -21 22 -17 35 8 23 0 26 -9 3z"/>
<path d="M8606 5460 c4 -25 10 -52 15 -60 13 -22 10 -1 -6 55 l-15 50 6 -45z"/>
<path d="M9075 5489 c-49 -6 -111 -8 -137 -6 l-46 4 28 -36 c16 -20 41 -70 56
-111 15 -41 37 -89 47 -106 42 -64 142 -114 286 -140 79 -14 103 -15 160 -5
102 18 158 49 252 140 46 44 92 83 102 87 23 7 22 24 -3 24 -19 0 -286 92
-322 111 -20 10 -91 10 -128 0 -17 -5 -41 0 -75 15 -65 30 -110 34 -220 23z
m155 -30 c-11 -8 -6 -9 20 -5 21 4 30 3 22 -3 -17 -11 53 -22 126 -21 51 1 93
-9 159 -37 17 -7 37 -13 45 -13 10 0 9 -3 -2 -10 -12 -8 -12 -10 -1 -10 8 0
12 -2 10 -4 -2 -3 -33 2 -69 9 -36 8 -99 14 -140 15 -44 0 -104 8 -145 20 -39
11 -82 21 -96 22 -15 1 -32 11 -39 21 -6 11 -8 17 -3 14 4 -2 28 -1 53 3 71
12 78 12 60 -1z m36 -80 c44 -15 74 -19 119 -16 33 3 80 1 105 -3 69 -13 170
-43 170 -52 0 -4 -10 -17 -22 -28 -21 -20 -31 -21 -123 -16 -55 3 -136 13
-180 21 -44 9 -98 18 -120 22 -22 3 -44 9 -50 13 -5 4 -21 10 -35 13 -14 4
-39 20 -55 37 l-29 30 81 0 c55 0 98 -6 139 -21z m-212 -35 c9 -3 13 -11 10
-16 -4 -6 -1 -8 7 -6 8 3 21 0 29 -7 27 -22 114 -63 185 -87 59 -19 90 -23
198 -23 70 0 127 -3 127 -7 0 -5 0 -11 0 -15 0 -5 -5 -8 -11 -8 -6 0 -16 -8
-23 -17 -7 -9 -29 -19 -49 -23 -20 -4 -34 -11 -31 -16 3 -5 -2 -6 -10 -3 -9 3
-29 1 -46 -4 -32 -12 -73 -6 -198 25 -40 11 -70 22 -67 25 5 5 -37 20 -51 17
-14 -2 -68 59 -90 103 -24 47 -33 77 -14 48 8 -13 10 -12 10 3 0 19 2 20 24
11z"/>
<path d="M9115 5370 c3 -5 10 -10 16 -10 5 0 9 5 9 10 0 6 -7 10 -16 10 -8 0
-12 -4 -9 -10z"/>
<path d="M9590 5300 c-13 -8 -12 -10 3 -10 9 0 17 5 17 10 0 12 -1 12 -20 0z"/>
<path d="M8636 5360 c3 -14 11 -32 16 -40 6 -10 7 -7 2 10 -3 14 -11 32 -16
40 -6 10 -7 7 -2 -10z"/>
<path d="M8660 5299 c0 -10 50 -109 55 -109 3 0 -3 17 -12 38 -18 39 -43 80
-43 71z"/>
<path d="M8726 5167 c3 -10 9 -15 12 -12 3 3 0 11 -7 18 -10 9 -11 8 -5 -6z"/>
<path d="M8760 5100 c11 -22 23 -40 25 -40 3 0 -4 18 -15 40 -11 22 -23 40
-25 40 -3 0 4 -18 15 -40z"/>
<path d="M8790 5041 c0 -6 4 -13 10 -16 6 -3 7 1 4 9 -7 18 -14 21 -14 7z"/>
<path d="M8845 4933 c15 -36 25 -52 25 -41 0 11 -30 78 -35 78 -3 0 2 -17 10
-37z"/>
<path d="M8884 4851 c9 -16 27 -42 41 -59 26 -31 119 -98 152 -108 10 -3 -6 9
-36 27 -63 38 -123 95 -145 138 -9 17 -19 31 -22 31 -2 0 2 -13 10 -29z"/>
<path d="M9110 4670 c8 -5 22 -9 30 -9 10 0 8 3 -5 9 -27 12 -43 12 -25 0z"/>
<path d="M9198 4643 c7 -3 16 -2 19 1 4 3 -2 6 -13 5 -11 0 -14 -3 -6 -6z"/>
<path d="M9240 4630 c8 -5 33 -9 55 -9 39 1 39 2 10 9 -16 4 -41 8 -55 9 -20
0 -22 -1 -10 -9z"/>
<path d="M2767 4563 c-4 -3 -7 -129 -7 -279 0 -239 -2 -273 -16 -278 -9 -3
-274 -6 -590 -6 l-575 0 7 -37 c33 -193 104 -342 211 -444 49 -48 142 -112
188 -129 35 -13 32 -25 -18 -59 -127 -87 -233 -267 -300 -511 -33 -119 -36
-134 -31 -142 3 -4 401 -8 885 -8 684 1 879 3 879 13 1 7 0 110 0 229 0 119 2
228 6 242 l6 26 2988 0 c2715 0 2988 -1 2994 -16 3 -9 6 -123 6 -255 l0 -239
23 1 c12 0 406 0 876 0 470 -1 859 3 863 7 10 10 -31 172 -67 269 -62 163
-157 305 -252 376 -29 22 -50 44 -47 50 2 7 32 26 66 42 83 41 184 137 241
229 26 42 47 82 47 89 0 7 4 17 8 22 12 13 47 141 57 208 l6 37 -574 0 c-443
0 -577 3 -590 13 -15 11 -17 42 -19 282 l-3 270 -3631 3 c-1997 1 -3634 -1
-3637 -5z m583 -291 c39 -39 53 -100 48 -207 -4 -78 -2 -94 18 -130 48 -87 53
-223 12 -332 -31 -83 -30 -83 -285 -83 l-223 0 0 390 0 390 201 0 201 0 28
-28z m631 -2 c25 -83 169 -539 209 -665 26 -82 55 -174 63 -202 l16 -53 -83 0
-83 0 -53 158 c-28 86 -56 161 -60 165 -4 5 -18 -27 -31 -70 l-25 -78 -172 -3
c-134 -2 -172 0 -172 10 0 7 15 60 34 118 26 79 149 468 202 638 3 9 23 12 76
10 66 -3 72 -5 79 -28z m851 5 c38 -37 63 -135 63 -240 0 -76 -5 -99 -27 -146
-14 -31 -41 -69 -61 -84 l-34 -28 63 -112 c91 -160 94 -145 -27 -145 l-104 0
-87 153 -88 152 0 93 0 92 95 1 c126 2 120 1 120 29 l0 25 -117 3 c-117 3
-118 2 -118 -20 -1 -13 -2 -70 -3 -128 l-2 -105 -70 0 -70 0 -3 243 -2 242
223 0 224 0 25 -25z m658 -3 c38 -39 52 -98 49 -206 -3 -77 0 -97 18 -132 29
-54 47 -163 39 -226 -10 -70 -43 -155 -69 -173 -18 -12 -62 -15 -244 -15
l-223 0 0 390 0 390 201 0 201 0 28 -28z m780 -82 l0 -110 -175 0 -175 0 0
-30 0 -30 120 0 120 0 0 -115 0 -115 -120 0 -120 0 0 -25 0 -25 175 0 175 0 0
-110 0 -110 -256 0 -256 0 4 313 c3 297 5 315 26 369 39 97 41 98 278 98 l204
0 0 -110z m632 85 c38 -37 63 -135 63 -240 0 -76 -5 -99 -27 -146 -14 -31 -41
-69 -60 -84 l-35 -28 68 -122 c38 -68 69 -126 69 -129 0 -3 -47 -6 -104 -6
l-104 0 -86 153 -86 152 0 92 0 92 108 3 c107 3 107 3 107 28 l0 25 -120 0
-120 0 4 -106 c5 -150 5 -149 -80 -149 l-69 0 0 245 0 245 224 0 223 0 25 -25z
m736 -87 l3 -108 -178 -2 -178 -3 -3 -167 -2 -168 100 0 100 0 0 30 0 30 -70
0 -70 0 0 110 0 110 150 0 150 0 -2 -247 -3 -248 -208 -3 -209 -2 -29 31 c-49
53 -59 107 -59 350 -1 245 10 316 61 370 l27 29 209 -2 208 -3 3 -107z m540
80 c15 -49 136 -431 189 -598 59 -186 93 -301 93 -312 0 -5 -36 -8 -80 -6
l-81 3 -55 165 c-31 91 -57 166 -59 168 -2 2 -15 -35 -29 -82 l-27 -86 -175 0
c-162 0 -175 1 -170 18 3 9 58 179 121 377 63 198 117 366 120 373 3 8 27 12
74 12 l69 0 10 -32z m622 -20 c12 -29 54 -126 93 -216 l72 -162 3 215 2 216
73 -3 72 -3 0 -385 0 -385 -109 0 -108 0 -74 170 c-41 94 -83 188 -93 210
l-20 40 0 -212 -1 -213 -75 0 -75 0 0 390 0 390 109 0 109 0 22 -52z m980 -58
l0 -110 -175 0 -175 0 0 -170 0 -170 100 0 100 0 0 30 0 30 -70 0 -70 0 0 110
0 110 145 0 145 0 0 -250 0 -250 -210 0 c-201 0 -210 1 -229 21 -58 62 -74
161 -69 412 4 166 7 199 26 246 41 103 34 101 274 101 l208 0 0 -110z"/>
<path d="M3060 3905 l0 -165 120 0 120 0 0 25 c0 24 -1 24 -102 27 l-103 3 0
110 0 110 78 3 c74 3 77 4 77 27 0 25 -1 25 -95 25 l-95 0 0 -165z"/>
<path d="M3887 3938 c-5 -21 -35 -124 -52 -177 -6 -20 -3 -21 64 -21 39 0 71
3 71 7 0 19 -64 213 -70 213 -4 0 -10 -10 -13 -22z"/>
<path d="M5200 3905 l0 -165 120 0 120 0 0 25 c0 24 -1 24 -102 27 l-103 3 0
110 0 110 78 3 c74 3 77 4 77 27 0 25 -1 25 -95 25 l-95 0 0 -165z"/>
<path d="M8062 3863 c-18 -60 -32 -111 -32 -115 0 -5 32 -8 71 -8 68 0 70 1
64 23 -26 84 -66 207 -68 207 -2 0 -17 -48 -35 -107z"/>
<path d="M5475 3044 c-9 -9 -14 -23 -11 -31 3 -8 6 -18 6 -23 0 -5 16 -18 35
-30 19 -12 35 -28 35 -35 0 -22 -22 -29 -35 -12 -7 10 -20 17 -29 17 -13 0
-15 -4 -6 -19 20 -38 80 -38 100 0 9 16 4 26 -30 59 -41 41 -52 70 -24 70 8 0
23 -7 32 -16 11 -11 17 -13 20 -5 12 36 -62 56 -93 25z"/>
<path d="M5670 2970 c0 -73 3 -90 15 -90 12 0 15 17 15 90 0 73 -3 90 -15 90
-12 0 -15 -17 -15 -90z"/>
<path d="M5800 2970 c0 -73 3 -90 15 -90 12 0 15 13 15 60 0 33 4 60 10 60 6
0 10 -6 10 -14 0 -29 40 -106 55 -106 12 0 15 16 15 90 0 72 -3 90 -14 90 -11
0 -16 -15 -18 -52 l-3 -53 -18 53 c-16 43 -23 52 -43 52 -24 0 -24 -1 -24 -90z"/>
<path d="M6032 3048 c-7 -7 -12 -40 -12 -80 0 -58 3 -69 21 -78 23 -13 70 -5
81 13 12 20 9 37 -7 37 -8 0 -15 -6 -15 -14 0 -15 -27 -30 -34 -18 -8 14 -16
100 -10 116 8 20 33 21 40 1 7 -18 34 -20 34 -2 0 22 -22 37 -55 37 -17 0 -36
-5 -43 -12z"/>
<path d="M6223 2973 l2 -88 44 -3 c24 -2 49 2 54 7 8 8 0 11 -26 11 -34 0 -37
2 -37 30 0 25 4 30 25 30 14 0 25 5 25 10 0 6 -11 10 -25 10 -21 0 -25 5 -25
30 0 28 3 30 36 30 21 0 33 4 29 10 -3 6 -28 10 -55 10 l-48 0 1 -87z"/>
<path d="M6565 3044 c-17 -18 -16 -35 4 -42 7 -2 15 6 18 17 3 14 12 21 22 19
27 -6 16 -51 -24 -91 -20 -20 -35 -42 -33 -49 6 -16 108 -24 108 -9 0 6 -16
11 -35 11 -19 0 -35 5 -35 11 0 6 16 25 35 43 53 50 45 106 -16 106 -15 0 -35
-7 -44 -16z"/>
<path d="M6772 3048 c-7 -7 -12 -40 -12 -80 0 -64 2 -69 26 -80 21 -10 31 -9
52 3 24 13 27 22 30 76 2 45 -1 65 -13 77 -19 19 -66 21 -83 4z m58 -71 c0
-68 -4 -79 -26 -70 -10 4 -14 23 -14 62 0 60 4 71 27 71 9 0 13 -17 13 -63z"/>
<path d="M7011 3046 c-19 -11 -21 -14 -7 -19 13 -5 16 -21 16 -77 0 -63 2 -71
18 -68 9 2 17 9 16 16 -1 6 -2 46 -2 87 -1 41 -5 75 -9 75 -5 -1 -19 -7 -32
-14z"/>
<path d="M7170 3050 c0 -5 18 -10 40 -10 22 0 40 -1 40 -3 0 -1 -11 -33 -25
-71 -29 -80 -30 -86 -11 -86 14 0 78 158 69 173 -7 11 -113 8 -113 -3z"/>
</g>
</svg>
